<svg width="1980" height="495" viewBox="0 0 1980 495" fill="none" xmlns="http://www.w3.org/2000/svg">
<path d="M571.94 75.7605H587.84V149.701H687.3V75.7605H702.96V239.541H687.3V164.151H587.84V239.541H571.94V75.7605ZM904.41 239.061V239.541H887.79L870.45 201.97H780.85L763.51 239.541H746.89V239.061L823 74.5605H828.3L904.41 239.061ZM825.64 102.49C823.72 107.47 820.67 114.781 816.49 124.411L787.59 187.51H863.94L834.8 124.411C830.63 114.781 827.57 107.47 825.64 102.49ZM1084.41 225.09V239.47H925.45V225.09H944.24C954.03 206.14 960.3 183.501 963.02 157.171L971.7 75.7605H1064.66V225.09H1084.41ZM978.2 161.021C975.63 184.781 970.09 206.14 961.58 225.09H1049.01V90.2104H985.66L978.2 161.021ZM1231.67 225.09V239.541H1131.72V75.7605H1229.5V90.2104H1147.61V148.5H1219.62V162.71H1147.61V225.09H1231.67ZM1455.51 238.811V239.541H1436.48L1366.15 163.671V239.541H1350.5V163.671L1280.17 239.541H1261.15V238.811L1336.53 157.171L1263.31 76.2405V75.7605H1281.86L1350.5 151.63V75.7605H1366.15V151.63L1434.8 75.7605H1453.1V76.4805L1380.12 157.171L1455.51 238.811ZM1498.48 75.7605H1514.37V149.701H1613.84V75.7605H1629.5V239.541H1613.84V164.151H1514.37V239.541H1498.48V75.7605ZM1830.94 239.061V239.541H1814.32L1796.98 201.97H1707.38L1690.04 239.541H1673.43V239.061L1749.53 74.5605H1754.83L1830.94 239.061ZM1752.18 102.49C1750.26 107.47 1747.21 114.781 1743.03 124.411L1714.13 187.51H1790.48L1761.34 124.411C1757.16 114.781 1754.11 107.47 1752.18 102.49ZM1979.4 75.7605V239.541H1963.5V171.38H1922.32L1875.35 239.541H1857.29V238.811L1904.25 170.171C1891.89 167.921 1882.02 162.541 1874.63 154.031C1867.24 145.531 1863.55 135.331 1863.55 123.451C1863.55 114.301 1865.76 106.11 1870.18 98.8805C1874.59 91.6505 1880.85 86.0005 1888.96 81.9005C1897.07 77.8105 1906.34 75.7605 1916.78 75.7605H1979.4ZM1963.5 90.2104H1916.78C1905.54 90.2104 1896.55 93.2205 1889.8 99.2405C1883.06 105.26 1879.69 113.331 1879.69 123.451C1879.69 133.571 1883.06 141.631 1889.8 147.651C1896.55 153.671 1905.54 156.691 1916.78 156.691H1963.5V90.2104Z" fill="#212121"/>
<path d="M642.78 492.86C626.64 492.86 612.43 489 599.91 481.3C587.14 473.83 577.27 463.47 570.28 450.47C563.3 437.7 559.69 423.49 559.69 407.84C559.69 391.7 563.3 377.25 570.28 364.48C577.27 351.72 587.14 341.61 599.91 334.14C612.67 326.91 626.88 323.3 642.78 323.3C655.3 323.3 666.38 325.47 676.26 329.8C686.13 334.38 695.52 341.12 704.43 350.04L695.04 359.67C688.06 352.68 680.59 347.15 672.16 343.53C663.73 339.92 654.1 337.99 642.78 337.99C629.77 337.99 618.21 341.12 608.1 347.15C597.74 353.17 589.79 361.6 584.25 372.19C578.47 382.79 575.58 394.59 575.58 407.84C575.58 420.6 578.47 432.4 584.25 443.24C589.79 454.08 597.74 462.51 608.1 468.77C618.21 475.03 629.77 478.16 642.78 478.16C653.86 478.16 663.97 475.76 673.12 470.94C682.28 466.12 689.98 459.38 696.25 450.95L707.57 459.86C700.58 469.98 691.43 477.92 680.35 483.94C669.27 489.97 656.75 492.86 642.78 492.86Z" fill="#212121"/>
<path d="M927.31 489.97H911.9L896 377.01C895.04 370.27 894.56 364.97 894.32 360.87L885.41 375.56L839.64 449.5H836.03L790.03 375.08L781.6 361.35C781.36 363.28 780.64 368.58 779.43 377.01L763.78 489.97H748.12L771.49 324.75H776.3L827.6 408.08C831.7 414.58 835.07 420.36 837.72 425.42C839.89 421.08 843.26 415.3 847.83 407.84L899.37 324.75H903.95L927.31 489.97Z" fill="#212121"/>
<path d="M1082.03 475.51V489.97H982.08V326.19H1079.86V340.64H997.98V398.93H1069.99V413.14H997.98V475.51H1082.03Z" fill="#212121"/>
<path d="M1133.19 326.19H1149.08V400.13H1248.55V326.19H1264.21V489.97H1248.55V414.58H1149.08V489.97H1133.19V326.19Z" fill="#212121"/>
<path d="M1465.65 489.48V489.97H1449.03L1431.69 452.39H1342.1L1324.76 489.97H1308.14V489.48L1384.25 324.99H1389.54L1465.65 489.48ZM1386.89 352.93C1384.97 357.98 1381.84 365.21 1377.74 374.84L1348.84 437.94H1425.19L1396.05 374.84C1391.95 365.21 1388.82 357.98 1386.89 352.93Z" fill="#212121"/>
<path d="M611.56 21.2098C611.56 24.0998 610.83 26.7299 609.32 29.0399C607.81 31.3499 605.68 33.1899 602.88 34.5599C600.02 35.9699 596.72 36.7599 592.97 36.9199V42.3298H589.44V36.9199C585.69 36.7599 582.45 35.9699 579.65 34.5599C576.79 33.1899 574.66 31.3499 573.15 29.0399C571.64 26.7299 570.86 24.0998 570.86 21.2098C570.86 18.3198 571.64 15.6899 573.15 13.3799C574.66 11.0699 576.79 9.22994 579.59 7.80994C582.39 6.44994 585.69 5.65988 589.44 5.49988V0.0898438H592.97V5.49988C596.78 5.65988 600.08 6.44994 602.88 7.80994C605.68 9.22994 607.81 11.0698 609.32 13.3298C610.83 15.6398 611.56 18.2698 611.56 21.2098ZM592.91 33.7699C595.99 33.6099 598.68 32.9799 600.98 31.8799C603.22 30.7699 604.95 29.2998 606.13 27.4598C607.3 25.6198 607.92 23.5698 607.92 21.2098C607.92 18.8498 607.3 16.7399 606.13 14.9099C604.95 13.0699 603.22 11.6499 600.98 10.5399C598.68 9.43992 595.99 8.8099 592.91 8.6499V33.7699ZM574.55 21.2098C574.55 24.7798 575.9 27.7299 578.53 29.9899C581.16 32.2399 584.85 33.4999 589.5 33.7699V8.6499C584.85 8.9199 581.16 10.1799 578.53 12.4399C575.9 14.6999 574.55 17.6398 574.55 21.2098Z" fill="#212121"/>
<path d="M650.17 40.2302C646.53 40.2302 643.23 39.3902 640.32 37.7102C637.35 36.0802 635.05 33.8202 633.43 30.9802C631.75 28.1502 630.91 25.0503 630.91 21.6803C630.91 18.1603 631.75 15.0102 633.37 12.2302C635 9.44022 637.29 7.23023 640.26 5.61023C643.17 4.03023 646.47 3.24023 650.17 3.24023C653.92 3.24023 657.22 4.03023 660.19 5.61023C663.1 7.23023 665.39 9.44022 667.02 12.2302C668.64 15.0102 669.48 18.1603 669.48 21.6803C669.48 25.1003 668.64 28.2002 667.02 30.9802C665.39 33.8202 663.1 36.0802 660.19 37.7102C657.22 39.3902 653.92 40.2302 650.17 40.2302ZM650.17 37.0303C653.25 37.0303 655.93 36.3402 658.34 34.9802C660.69 33.6102 662.54 31.7703 663.83 29.4103C665.12 27.0403 665.79 24.4703 665.79 21.6803C665.79 18.7903 665.12 16.1702 663.83 13.8502C662.54 11.5402 660.69 9.70026 658.34 8.39026C655.93 7.08026 653.25 6.45032 650.17 6.45032C647.14 6.45032 644.46 7.08026 642.11 8.39026C639.7 9.70026 637.85 11.5402 636.56 13.8502C635.28 16.1702 634.6 18.7903 634.6 21.6803C634.6 24.4703 635.28 27.0403 636.62 29.4103C637.91 31.7703 639.76 33.6102 642.11 34.9802C644.46 36.3402 647.14 37.0303 650.17 37.0303Z" fill="#212121"/>
<path d="M691.8 3.87012H695.5V20.0001H718.62V3.87012H722.26V39.6001H718.62V23.1501H695.5V39.6001H691.8V3.87012Z" fill="#212121"/>
<path d="M778.62 36.4502V47.5901H774.92V39.6001H745.3V47.5901H741.66V36.4502H746.03C748.33 32.3002 749.78 27.3601 750.4 21.6301L752.41 3.87012H774.02V36.4502H778.62ZM753.93 22.4701C753.31 27.6701 752.02 32.3002 750.06 36.4502H770.38V7.02014H755.66L753.93 22.4701Z" fill="#212121"/>
<path d="M840.92 40.2302C837.28 40.2302 833.98 39.3902 831.07 37.7102C828.1 36.0802 825.81 33.8202 824.18 30.9802C822.5 28.1502 821.66 25.0503 821.66 21.6803C821.66 18.1603 822.5 15.0102 824.13 12.2302C825.75 9.44022 828.05 7.23023 831.01 5.61023C833.92 4.03023 837.23 3.24023 840.92 3.24023C844.67 3.24023 847.98 4.03023 850.94 5.61023C853.85 7.23023 856.15 9.44022 857.77 12.2302C859.4 15.0102 860.24 18.1603 860.24 21.6803C860.24 25.1003 859.4 28.2002 857.77 30.9802C856.15 33.8202 853.85 36.0802 850.94 37.7102C847.98 39.3902 844.67 40.2302 840.92 40.2302ZM840.92 37.0303C844 37.0303 846.69 36.3402 849.1 34.9802C851.45 33.6102 853.29 31.7703 854.58 29.4103C855.87 27.0403 856.54 24.4703 856.54 21.6803C856.54 18.7903 855.87 16.1702 854.58 13.8502C853.29 11.5402 851.45 9.70026 849.1 8.39026C846.69 7.08026 844 6.45032 840.92 6.45032C837.9 6.45032 835.21 7.08026 832.86 8.39026C830.45 9.70026 828.61 11.5402 827.32 13.8502C826.03 16.1702 825.36 18.7903 825.36 21.6803C825.36 24.4703 826.03 27.0403 827.37 29.4103C828.66 31.7703 830.51 33.6102 832.86 34.9802C835.21 36.3402 837.9 37.0303 840.92 37.0303Z" fill="#212121"/>
<path d="M882.56 3.87012H905.73V7.02014H886.25V18.6401H896.78C899.13 18.6401 901.25 19.1101 903.16 20.0001C905 20.8901 906.46 22.1601 907.52 23.7301C908.59 25.3601 909.09 27.1501 909.09 29.0901C909.09 31.0401 908.59 32.8202 907.52 34.4502C906.46 36.0802 904.95 37.3401 903.1 38.2301C901.25 39.1301 899.13 39.6001 896.78 39.6001H882.56V3.87012ZM896.78 36.4502C899.41 36.4502 901.48 35.7602 903.1 34.4502C904.67 33.1402 905.45 31.3501 905.45 29.0901C905.45 26.8301 904.67 25.1002 903.1 23.7802C901.48 22.4702 899.41 21.8401 896.78 21.8401H886.25V36.4502H896.78Z" fill="#212121"/>
<path d="M931.13 3.87012H945.18C947.7 3.87012 949.83 4.4002 951.68 5.4502C953.47 6.5502 954.81 7.9201 955.76 9.6001C956.72 11.2801 957.16 13.0101 957.16 14.7501C957.16 16.4801 956.72 18.1602 955.82 19.7902C954.92 21.4202 953.58 22.7301 951.73 23.7301C949.89 24.7301 947.59 25.2601 944.96 25.2601H934.83V39.6001H931.13V3.87012ZM944.9 22.1001C946.75 22.1001 948.37 21.7402 949.66 21.0502C950.95 20.3702 951.9 19.4202 952.52 18.3202C953.13 17.2202 953.47 16.0102 953.47 14.7002C953.47 13.3302 953.13 12.0701 952.46 10.8601C951.73 9.70011 950.78 8.76019 949.49 8.07019C948.21 7.39019 946.75 7.02014 945.13 7.02014H934.83V22.1001H944.9Z" fill="#212121"/>
<path d="M1006.24 39.4904V39.6003H1002.38L998.35 31.4004H977.52L973.49 39.6003H969.63V39.4904L987.32 3.61035H988.55L1006.24 39.4904ZM987.94 9.70044C987.49 10.8104 986.76 12.3804 985.81 14.4904L979.09 28.2504H996.84L990.06 14.4904C989.11 12.3804 988.38 10.8104 987.94 9.70044Z" fill="#212121"/>
<path d="M1035.9 40.0697C1030.35 40.0697 1025.82 38.4397 1022.29 35.1897L1024.25 32.8197C1025.65 34.0797 1027.39 35.0797 1029.35 35.8197C1031.31 36.5497 1033.49 36.9197 1035.9 36.9197C1038.64 36.9197 1040.88 36.2396 1042.67 34.8696C1044.41 33.5596 1045.3 31.7696 1045.3 29.5096C1045.3 27.3596 1044.52 25.6797 1042.9 24.4197C1041.27 23.2097 1039.2 22.5796 1036.63 22.5796H1031.14V19.4197H1036.51C1038.7 19.4197 1040.38 18.8496 1041.61 17.6396C1042.84 16.4296 1043.46 14.9097 1043.46 13.0697C1043.46 11.0697 1042.67 9.48967 1041.1 8.28967C1039.54 7.07967 1037.46 6.49963 1034.83 6.49963C1031.36 6.49963 1028.23 7.59964 1025.48 9.75964L1023.64 7.3396C1026.88 4.6596 1030.58 3.34961 1034.78 3.34961C1037.19 3.34961 1039.31 3.76962 1041.22 4.60962C1043.06 5.44962 1044.52 6.59965 1045.58 8.01965C1046.65 9.48965 1047.15 11.1197 1047.15 12.9097C1047.15 14.6397 1046.7 16.1696 1045.75 17.5896C1044.8 18.9996 1043.57 20.0496 1042 20.7396C1044.18 21.4196 1045.92 22.5196 1047.15 24.0996C1048.38 25.7296 1049 27.5697 1049 29.6697C1049 31.6097 1048.44 33.3497 1047.37 34.9197C1046.31 36.4997 1044.74 37.7597 1042.78 38.6497C1040.77 39.5997 1038.47 40.0697 1035.9 40.0697Z" fill="#212121"/>
<path d="M1088.06 40.2302C1084.42 40.2302 1081.11 39.3902 1078.2 37.7102C1075.24 36.0802 1072.94 33.8202 1071.32 30.9802C1069.64 28.1502 1068.8 25.0503 1068.8 21.6803C1068.8 18.1603 1069.64 15.0102 1071.26 12.2302C1072.88 9.44022 1075.18 7.23023 1078.15 5.61023C1081.06 4.03023 1084.36 3.24023 1088.06 3.24023C1091.81 3.24023 1095.11 4.03023 1098.08 5.61023C1100.99 7.23023 1103.28 9.44022 1104.91 12.2302C1106.53 15.0102 1107.37 18.1603 1107.37 21.6803C1107.37 25.1003 1106.53 28.2002 1104.91 30.9802C1103.28 33.8202 1100.99 36.0802 1098.08 37.7102C1095.11 39.3902 1091.81 40.2302 1088.06 40.2302ZM1088.06 37.0303C1091.14 37.0303 1093.82 36.3402 1096.23 34.9802C1098.58 33.6102 1100.43 31.7703 1101.72 29.4103C1103 27.0403 1103.68 24.4703 1103.68 21.6803C1103.68 18.7903 1103 16.1702 1101.72 13.8502C1100.43 11.5402 1098.58 9.70026 1096.23 8.39026C1093.82 7.08026 1091.14 6.45032 1088.06 6.45032C1085.03 6.45032 1082.35 7.08026 1079.99 8.39026C1077.59 9.70026 1075.74 11.5402 1074.45 13.8502C1073.16 16.1702 1072.49 18.7903 1072.49 21.6803C1072.49 24.4703 1073.16 27.0403 1074.51 29.4103C1075.8 31.7703 1077.64 33.6102 1079.99 34.9802C1082.35 36.3402 1085.03 37.0303 1088.06 37.0303Z" fill="#212121"/>
<path d="M1150.18 20.6802C1152.08 21.4702 1153.59 22.6301 1154.77 24.2601C1155.95 25.8901 1156.51 27.6702 1156.51 29.6702C1156.51 31.6102 1156 33.2902 1154.99 34.8202C1153.99 36.3402 1152.59 37.5001 1150.85 38.3401C1149.12 39.1801 1147.1 39.6001 1144.92 39.6001H1129.69V3.87012H1143.91C1145.93 3.87012 1147.77 4.24015 1149.4 5.03015C1151.02 5.82015 1152.36 6.92009 1153.31 8.34009C1154.27 9.76009 1154.77 11.3301 1154.77 13.1201C1154.77 14.7501 1154.38 16.2202 1153.54 17.5302C1152.7 18.8502 1151.58 19.9002 1150.18 20.6802ZM1133.39 19.4202H1143.8C1146.09 19.4202 1147.88 18.8501 1149.17 17.7401C1150.46 16.6401 1151.13 15.1201 1151.13 13.1201C1151.13 11.2801 1150.46 9.76015 1149.06 8.65015C1147.66 7.55015 1145.87 7.02014 1143.69 7.02014H1133.39V19.4202ZM1144.75 36.4502C1147.1 36.4502 1149.06 35.8202 1150.57 34.5602C1152.08 33.2902 1152.81 31.6101 1152.81 29.4601C1152.81 27.4101 1152.08 25.7801 1150.63 24.4701C1149.17 23.2101 1147.33 22.5801 1145.03 22.5801H1133.39V36.4502H1144.75Z" fill="#212121"/>
<path d="M1210.01 39.4904V39.6003H1206.15L1202.11 31.4004H1181.29L1177.26 39.6003H1173.4V39.4904L1191.09 3.61035H1192.32L1210.01 39.4904ZM1191.7 9.70044C1191.25 10.8104 1190.53 12.3804 1189.57 14.4904L1182.86 28.2504H1200.6L1193.83 14.4904C1192.88 12.3804 1192.15 10.8104 1191.7 9.70044Z" fill="#212121"/>
<path d="M1248.28 7.02014H1236.58V39.6001H1232.89V7.02014H1221.19V3.87012H1248.28V7.02014Z" fill="#212121"/>
<path d="M1291.93 36.4502V39.6001H1268.7V3.87012H1291.43V7.02014H1272.39V19.7401H1289.13V22.8401H1272.39V36.4502H1291.93Z" fill="#212121"/>
<path d="M1308.71 36.9202C1310.61 36.7602 1312.18 36.2401 1313.41 35.2401C1314.64 34.2901 1315.65 32.8201 1316.38 30.7701C1317.11 28.7801 1317.72 26.1002 1318.12 22.6802L1320.35 3.87012H1341.91V39.6001H1338.21V7.02014H1323.43L1321.59 22.7902C1321.14 26.6702 1320.41 29.8301 1319.46 32.2401C1318.51 34.6601 1317.16 36.5001 1315.54 37.7101C1313.86 38.9701 1311.73 39.7001 1309.16 39.8601L1308.71 36.9202Z" fill="#212121"/>
<path d="M1380.85 18.6401C1383.09 18.6401 1385.11 19.1101 1386.96 20.0001C1388.75 20.8901 1390.15 22.1601 1391.21 23.7301C1392.22 25.3601 1392.72 27.1501 1392.72 29.0901C1392.72 31.0401 1392.22 32.8201 1391.16 34.4001C1390.09 36.0301 1388.69 37.2902 1386.9 38.1802C1385.05 39.1302 1383.04 39.6001 1380.85 39.6001H1366.64V3.87012H1370.33V18.6401H1380.85ZM1380.85 36.4502C1383.26 36.4502 1385.28 35.7602 1386.79 34.4502C1388.3 33.1402 1389.03 31.3501 1389.03 29.0901C1389.03 26.8301 1388.3 25.0501 1386.79 23.7301C1385.28 22.4201 1383.26 21.7902 1380.85 21.7902H1370.33V36.4502H1380.85Z" fill="#212121"/>
<path d="M1413.76 3.87012H1417.45V20.0001H1440.57V3.87012H1444.21V39.6001H1440.57V23.1501H1417.45V39.6001H1413.76V3.87012Z" fill="#212121"/>
<path d="M1468.94 3.87012H1472.63V18.6401H1483.16C1485.39 18.6401 1487.41 19.1101 1489.26 20.0001C1491.05 20.8901 1492.45 22.1601 1493.51 23.7301C1494.52 25.3601 1495.02 27.1501 1495.02 29.0901C1495.02 31.0401 1494.52 32.8201 1493.46 34.4001C1492.39 36.0301 1490.99 37.2902 1489.2 38.1802C1487.35 39.1302 1485.34 39.6001 1483.16 39.6001H1468.94V3.87012ZM1502.3 3.87012H1506V39.6001H1502.3V3.87012ZM1483.16 36.4502C1485.56 36.4502 1487.58 35.7602 1489.09 34.4502C1490.6 33.1402 1491.33 31.3501 1491.33 29.0901C1491.33 26.8301 1490.6 25.0501 1489.09 23.7301C1487.58 22.4201 1485.56 21.7902 1483.16 21.7902H1472.63V36.4502H1483.16Z" fill="#212121"/>
<path d="M1526.25 39.4901L1540.3 21.0502L1527.42 3.9801V3.87012H1531.68L1538.73 13.1702C1540.13 15.0602 1541.42 16.8501 1542.48 18.4801C1543.82 16.4301 1545.06 14.6402 1546.23 13.0702L1553.17 3.87012H1557.37V3.9801L1544.55 21.0502L1558.6 39.4901V39.6001H1554.35L1546.18 28.7201C1544.44 26.4101 1543.21 24.6802 1542.48 23.5702C1541.25 25.4102 1540.02 27.1502 1538.73 28.7802L1530.5 39.6001H1526.25V39.4901Z" fill="#212121"/>
<path d="M1603.61 3.87012H1632.5V39.6001H1628.81V7.02014H1607.31V39.6001H1603.61V3.87012Z" fill="#212121"/>
<path d="M1657.23 3.87012H1671.28C1673.8 3.87012 1675.93 4.4002 1677.77 5.4502C1679.57 6.5502 1680.91 7.9201 1681.86 9.6001C1682.81 11.2801 1683.26 13.0101 1683.26 14.7501C1683.26 16.4801 1682.81 18.1602 1681.92 19.7902C1681.02 21.4202 1679.68 22.7301 1677.83 23.7301C1675.98 24.7301 1673.69 25.2601 1671.06 25.2601H1660.92V39.6001H1657.23V3.87012ZM1671 22.1001C1672.85 22.1001 1674.47 21.7402 1675.76 21.0502C1677.05 20.3702 1678 19.4202 1678.61 18.3202C1679.23 17.2202 1679.57 16.0102 1679.57 14.7002C1679.57 13.3302 1679.23 12.0701 1678.56 10.8601C1677.83 9.70011 1676.88 8.76019 1675.59 8.07019C1674.3 7.39019 1672.85 7.02014 1671.22 7.02014H1660.92V22.1001H1671Z" fill="#212121"/>
<path d="M1721.09 40.2302C1717.45 40.2302 1714.15 39.3902 1711.23 37.7102C1708.27 36.0802 1705.97 33.8202 1704.35 30.9802C1702.67 28.1502 1701.83 25.0503 1701.83 21.6803C1701.83 18.1603 1702.67 15.0102 1704.29 12.2302C1705.92 9.44022 1708.21 7.23023 1711.18 5.61023C1714.09 4.03023 1717.39 3.24023 1721.09 3.24023C1724.84 3.24023 1728.14 4.03023 1731.11 5.61023C1734.02 7.23023 1736.31 9.44022 1737.94 12.2302C1739.56 15.0102 1740.4 18.1603 1740.4 21.6803C1740.4 25.1003 1739.56 28.2002 1737.94 30.9802C1736.31 33.8202 1734.02 36.0802 1731.11 37.7102C1728.14 39.3902 1724.84 40.2302 1721.09 40.2302ZM1721.09 37.0303C1724.17 37.0303 1726.85 36.3402 1729.26 34.9802C1731.61 33.6102 1733.46 31.7703 1734.75 29.4103C1736.04 27.0403 1736.71 24.4703 1736.71 21.6803C1736.71 18.7903 1736.04 16.1702 1734.75 13.8502C1733.46 11.5402 1731.61 9.70026 1729.26 8.39026C1726.85 7.08026 1724.17 6.45032 1721.09 6.45032C1718.06 6.45032 1715.38 7.08026 1713.03 8.39026C1710.62 9.70026 1708.77 11.5402 1707.48 13.8502C1706.2 16.1702 1705.52 18.7903 1705.52 21.6803C1705.52 24.4703 1706.2 27.0403 1707.54 29.4103C1708.83 31.7703 1710.67 33.6102 1713.03 34.9802C1715.38 36.3402 1718.06 37.0303 1721.09 37.0303Z" fill="#212121"/>
<path d="M1785.95 36.4502V39.6001H1762.72V3.87012H1785.45V7.02014H1766.42V19.7401H1783.16V22.8401H1766.42V36.4502H1785.95Z" fill="#212121"/>
<path d="M1834.03 39.4402V39.6001H1829.38L1811.24 22.7301V39.6001H1807.55V3.87012H1811.24V20.7401L1828.43 3.87012H1832.96V4.03015L1814.94 21.6301L1834.03 39.4402Z" fill="#212121"/>
<path d="M1875.94 7.02014H1864.24V39.6001H1860.55V7.02014H1848.84V3.87012H1875.94V7.02014Z" fill="#212121"/>
<path d="M1910.91 40.2302C1907.27 40.2302 1903.97 39.3902 1901.06 37.7102C1898.09 36.0802 1895.8 33.8202 1894.17 30.9802C1892.49 28.1502 1891.65 25.0503 1891.65 21.6803C1891.65 18.1603 1892.49 15.0102 1894.12 12.2302C1895.74 9.44022 1898.04 7.23023 1901 5.61023C1903.92 4.03023 1907.22 3.24023 1910.91 3.24023C1914.66 3.24023 1917.97 4.03023 1920.93 5.61023C1923.84 7.23023 1926.14 9.44022 1927.76 12.2302C1929.39 15.0102 1930.23 18.1603 1930.23 21.6803C1930.23 25.1003 1929.39 28.2002 1927.76 30.9802C1926.14 33.8202 1923.84 36.0802 1920.93 37.7102C1917.97 39.3902 1914.66 40.2302 1910.91 40.2302ZM1910.91 37.0303C1913.99 37.0303 1916.68 36.3402 1919.09 34.9802C1921.44 33.6102 1923.29 31.7703 1924.57 29.4103C1925.86 27.0403 1926.53 24.4703 1926.53 21.6803C1926.53 18.7903 1925.86 16.1702 1924.57 13.8502C1923.29 11.5402 1921.44 9.70026 1919.09 8.39026C1916.68 7.08026 1913.99 6.45032 1910.91 6.45032C1907.89 6.45032 1905.2 7.08026 1902.85 8.39026C1900.44 9.70026 1898.6 11.5402 1897.31 13.8502C1896.02 16.1702 1895.35 18.7903 1895.35 21.6803C1895.35 24.4703 1896.02 27.0403 1897.37 29.4103C1898.65 31.7703 1900.5 33.6102 1902.85 34.9802C1905.2 36.3402 1907.89 37.0303 1910.91 37.0303Z" fill="#212121"/>
<path d="M1973.04 20.6802C1974.94 21.4702 1976.45 22.6301 1977.63 24.2601C1978.8 25.8901 1979.36 27.6702 1979.36 29.6702C1979.36 31.6102 1978.86 33.2902 1977.85 34.8202C1976.84 36.3402 1975.44 37.5001 1973.71 38.3401C1971.97 39.1801 1969.96 39.6001 1967.77 39.6001H1952.55V3.87012H1966.77C1968.78 3.87012 1970.63 4.24015 1972.25 5.03015C1973.88 5.82015 1975.22 6.92009 1976.17 8.34009C1977.12 9.76009 1977.63 11.3301 1977.63 13.1201C1977.63 14.7501 1977.24 16.2202 1976.4 17.5302C1975.56 18.8502 1974.44 19.9002 1973.04 20.6802ZM1956.24 19.4202H1966.66C1968.95 19.4202 1970.74 18.8501 1972.03 17.7401C1973.32 16.6401 1973.99 15.1201 1973.99 13.1201C1973.99 11.2801 1973.32 9.76015 1971.92 8.65015C1970.52 7.55015 1968.73 7.02014 1966.54 7.02014H1956.24V19.4202ZM1967.61 36.4502C1969.96 36.4502 1971.92 35.8202 1973.43 34.5602C1974.94 33.2902 1975.67 31.6101 1975.67 29.4601C1975.67 27.4101 1974.94 25.7801 1973.48 24.4701C1972.03 23.2101 1970.18 22.5801 1967.89 22.5801H1956.24V36.4502H1967.61Z" fill="#212121"/>
<path fill-rule="evenodd" clip-rule="evenodd" d="M489.07 262.42C435.02 266.19 381.55 279.03 332.2 301.61C320.71 306.98 311.93 310.88 301.21 317.72C290.88 311.7 277.61 307.41 266.91 302.27C275.23 296.1 284.61 291.56 294.06 287.36C314.16 277.02 335.45 269.46 356.95 263.01C382.17 255.5 468.13 240.36 489.07 262.42ZM495.49 275.97C495.61 276.92 495.67 277.89 495.67 278.88V311.07C470.53 315.84 445.81 322.74 421.85 331.91C416.93 333.99 411.8 335.53 407.19 338.46C427.36 338.02 447.47 338.46 467.49 338.24C473.5 338.24 478.92 335.66 484.43 333.92C488.17 332.67 491.91 331.47 495.67 330.31V470.33C495.67 483.49 484.9 494.26 471.74 494.26H280.29C267.12 494.26 256.36 483.49 256.36 470.33V313.52C274.37 320.69 291.88 328.39 308.73 336.48C320.75 342.21 331.47 337.32 341.55 330.75C349.3 325.7 357.46 321.31 365.91 317.39C385.49 307.12 406.35 299.85 427.3 293.09C449.59 285.97 472.39 280.13 495.49 275.97Z" fill="#A8B50A"/>
<path fill-rule="evenodd" clip-rule="evenodd" d="M24.1502 0.360352H215.6C221.61 0.360352 227.11 2.5904 231.32 6.2804C228.22 40.0504 225.03 205.4 222.81 205.57L211.17 206.51C212.17 206.43 134.45 52.3904 122.15 29.2004C132.64 54.9104 145.24 79.6404 155.33 105.4C171.24 139.69 185.84 173.42 201.12 208.24L192.08 211.25C158.04 175.07 107.33 107.9 76.8502 73.2504C105.93 116.7 143.71 160.91 182.78 214.1L172.27 218.12C169.16 219.31 59.5602 141.02 36.1402 125.52C42.9402 132.65 51.4502 137.94 59.2402 143.86C93.8802 170.72 129.51 196.26 164.28 223C162.96 224.09 161.66 225.2 160.31 226.29C156.65 229.24 153.13 232.47 149.24 235.25C131.35 230.49 113.81 224.6 96.0802 219.38C81.3302 214.91 66.6502 210.3 51.9702 205.89C38.8702 202 25.8202 197.15 12.1102 195.6C54.7802 208.61 96.2502 225.13 138.41 239.67H110.22C105.52 238.3 100.82 236.96 96.0802 235.61C64.6002 227.16 32.6002 220.44 0.220215 216.08V215.74V24.2904C0.220215 11.1204 10.9902 0.360352 24.1502 0.360352ZM233.25 8.1604C237.14 12.4204 239.53 18.1004 239.53 24.2904L239.64 207.12L233.08 206.39C232.59 205.7 234.81 46.1404 233.25 8.1604Z" fill="#00ABD1"/>
<path fill-rule="evenodd" clip-rule="evenodd" d="M239.32 306.95V470.13C239.32 483.3 228.55 494.06 215.39 494.06H23.93C10.77 494.06 0 483.3 0 470.13V278.68C0 257.24 14.74 258.79 30.16 259.81C100 264.41 172.56 282.01 239.32 306.95Z" fill="#9E213D"/>
<path fill-rule="evenodd" clip-rule="evenodd" d="M280.56 0H472.01C485.17 0 495.94 10.7701 495.94 23.9401V215.39C495.94 227.07 490.94 233.81 480.03 233.09C472.63 232.59 465.22 232.27 457.82 232.1C426.58 231.5 395.36 234 364.61 239.32H329.56C370.34 225.17 408.77 208.69 453.74 192.94C404.85 206.39 354.33 225.1 307.77 238.7C304.27 234.96 299.86 231.79 296.62 227.69C308.56 218.9 320.18 209.78 332.02 201.04C353.43 184.81 375.27 169.1 396.5 152.67C404.02 146.66 411.95 141 418.92 134.46C415.84 136.22 413.01 138.35 409.96 140.42C383.97 157.8 358.17 175.5 332.41 193.34C320.27 201.94 307.77 210.3 295.73 218.95C293.84 220.2 292 221.67 289.8 222.18C285.9 222.05 282.65 219.6 279.45 217.56C313.13 172.5 351.66 129.1 381.04 81.1C341.86 120.55 307.38 172.85 269.04 214.34C267.35 216.16 267.52 213.56 265.42 213.96C284.67 155.8 323.06 90.2201 343.61 29.9401C316.38 80.8801 281.23 150.93 256.63 204.33V174.51C263.21 145.5 288.29 16.76 287.35 17.04C287.28 17.06 261.77 121.37 256.4 142.33L256.63 23.9401C256.65 10.7701 267.4 0 280.56 0Z" fill="#FA9E0D"/>
</svg>
